<!-- icon666.com - MILLIONS vector ICONS FREE --><svg viewBox="0 0 83.4 114.74" xmlns="http://www.w3.org/2000/svg" xmlns:xlink="http://www.w3.org/1999/xlink"><linearGradient id="linear-gradient" gradientUnits="userSpaceOnUse" x1="6.03" x2="76.86" y1="62.83" y2="62.83"><stop offset="0" stop-color="#55bcaf"></stop><stop offset=".25" stop-color="#4cb8a9"></stop><stop offset=".67" stop-color="#32ac99"></stop><stop offset=".99" stop-color="#1aa08a"></stop></linearGradient><g id="Layer_2" data-name="Layer 2"><g id="Icon"><path d="m75.88 107h-68.88a1 1 0 0 1 -1-1v-86.4a1 1 0 0 1 1-1h17.26a1 1 0 0 1 1 1v3.48h32.4v-3.48a1 1 0 0 1 1-1h17.22a1 1 0 0 1 1 1v86.46a1 1 0 0 1 -1 .94z" fill="url(#linear-gradient)"></path><path d="m23.27 47.83a1 1 0 0 1 -.71-.31 1 1 0 0 1 0-1.38l7.6-7.24a1 1 0 0 1 1.39 0 1 1 0 0 1 0 1.38l-7.55 7.28a1 1 0 0 1 -.73.27z"></path><path d="m23.27 47.83a1 1 0 0 1 -.82-.44l-2.92-4.39a1 1 0 0 1 1.64-1.09l2.92 4.38a1 1 0 0 1 -.27 1.36 1 1 0 0 1 -.55.18z"></path><path d="m21.09 88.49a1 1 0 0 1 -.72-.31 1 1 0 0 1 0-1.39l10.43-9.91a1 1 0 0 1 1.39 0 1 1 0 0 1 0 1.38l-10.43 9.96a1 1 0 0 1 -.67.27z"></path><path d="m31.52 88.49a1 1 0 0 1 -.68-.27l-10.43-9.92a1 1 0 1 1 1.35-1.42l10.44 9.91a1 1 0 0 1 -.68 1.7z"></path><path d="m82.42 114.74h-81.42a1 1 0 0 1 -1-1v-102.2a1 1 0 0 1 1-1h23.52a1 1 0 0 1 1 1v11.35h32.37v-11.35a1 1 0 0 1 1-1h23.53a1 1 0 0 1 1 1v102.22a1 1 0 0 1 -1 .98zm-80.42-1.96h79.43v-100.26h-21.57v11.35a1 1 0 0 1 -1 1h-34.34a1 1 0 0 1 -1-1v-11.35h-21.52z"></path><path d="m76.13 106.86h-68.87a1 1 0 0 1 -1-1v-86.44a1 1 0 0 1 1-1h17.26a1 1 0 0 1 1 1v3.47h32.37v-3.47a1 1 0 0 1 1-1h17.24a1 1 0 0 1 1 1v86.46a1 1 0 0 1 -1 .98zm-67.89-2h66.91v-84.46h-15.29v3.47a1 1 0 0 1 -1 1h-34.34a1 1 0 0 1 -1-1v-3.47h-15.28z"></path><path d="m36.85 52.82h-21.1a1 1 0 0 1 -1-1v-18.16a1 1 0 0 1 1-1h21.1a1 1 0 0 1 1 1v18.18a1 1 0 0 1 -1 .98zm-20.12-2h19.14v-16.17h-19.14z"></path><path d="m38.26 93.83h-23.92a1 1 0 0 1 -1-1v-20.58a1 1 0 0 1 1-1h23.92a1 1 0 0 1 1 1v20.6a1 1 0 0 1 -1 .98zm-22.93-2h22v-18.6h-22z"></path><path d="m69.05 38.52h-24.93a1 1 0 0 1 0-2h24.93a1 1 0 0 1 0 2z"></path><path d="m59.26 47.54h-15.14a1 1 0 1 1 0-2h15.14a1 1 0 1 1 0 2z"></path><path d="m69.05 79.71h-24.93a1 1 0 1 1 0-2h24.93a1 1 0 0 1 0 2z"></path><path d="m59.26 88.74h-15.14a1 1 0 0 1 0-2h15.14a1 1 0 1 1 0 2z"></path><path d="m58.88 24.85h-34.36a1 1 0 0 1 -1-1v-16a1 1 0 0 1 1-1h9.06a8.23 8.23 0 0 1 16.24 0h9.06a1 1 0 0 1 1 1v16a1 1 0 0 1 -1 1zm-33.38-2h32.39v-14.02h-9a1 1 0 0 1 -1-.93 6.27 6.27 0 0 0 -12.52 0 1 1 0 0 1 -1 .93h-9z"></path><path d="m41.7 21a4.89 4.89 0 1 1 4.89-4.89 4.89 4.89 0 0 1 -4.89 4.89zm0-7.82a2.93 2.93 0 1 0 2.93 2.93 2.93 2.93 0 0 0 -2.93-2.96z"></path></g></g></svg>